<mxfile host="65bd71144e">
    <diagram id="2LGMeDwNRx20qRGF0dhz" name="PAP1">
        <mxGraphModel dx="990" dy="764" grid="1" gridSize="10" guides="1" tooltips="1" connect="1" arrows="1" fold="1" page="1" pageScale="1" pageWidth="827" pageHeight="1169" math="0" shadow="0">
            <root>
                <mxCell id="0"/>
                <mxCell id="1" parent="0"/>
                <mxCell id="2" value="Start" style="rounded=1;whiteSpace=wrap;html=1;fillColor=#008a00;fontColor=#ffffff;strokeColor=#005700;" vertex="1" parent="1">
                    <mxGeometry x="290" y="50" width="180" height="60" as="geometry"/>
                </mxCell>
                <mxCell id="4" value="Stop" style="rounded=1;whiteSpace=wrap;html=1;fillColor=#a20025;fontColor=#ffffff;strokeColor=#6F0000;" vertex="1" parent="1">
                    <mxGeometry x="290" y="570" width="180" height="60" as="geometry"/>
                </mxCell>
                <mxCell id="5" value="firstName = &quot;Max&quot;" style="rounded=0;whiteSpace=wrap;html=1;fillColor=#6a00ff;fontColor=#ffffff;strokeColor=#3700CC;" vertex="1" parent="1">
                    <mxGeometry x="240" y="170" width="280" height="60" as="geometry"/>
                </mxCell>
                <mxCell id="6" value="lastName = &quot;Mustermann&quot;" style="rounded=0;whiteSpace=wrap;html=1;glass=0;shadow=0;fillColor=#6a00ff;fontColor=#ffffff;strokeColor=#3700CC;" vertex="1" parent="1">
                    <mxGeometry x="240" y="250" width="280" height="60" as="geometry"/>
                </mxCell>
                <mxCell id="7" value="Ausgabe firstName" style="shape=parallelogram;perimeter=parallelogramPerimeter;whiteSpace=wrap;html=1;fixedSize=1;rounded=0;shadow=0;glass=0;fillColor=#0050ef;fontColor=#ffffff;strokeColor=#001DBC;" vertex="1" parent="1">
                    <mxGeometry x="240" y="370" width="280" height="60" as="geometry"/>
                </mxCell>
                <mxCell id="8" value="Ausgabe lastName" style="shape=parallelogram;perimeter=parallelogramPerimeter;whiteSpace=wrap;html=1;fixedSize=1;rounded=0;shadow=0;glass=0;fillColor=#0050ef;fontColor=#ffffff;strokeColor=#001DBC;" vertex="1" parent="1">
                    <mxGeometry x="240" y="450" width="280" height="60" as="geometry"/>
                </mxCell>
            </root>
        </mxGraphModel>
    </diagram>
    <diagram id="mraWa327yrvOfBrJgfDU" name="PAP2">
        <mxGraphModel dx="990" dy="764" grid="1" gridSize="10" guides="1" tooltips="1" connect="1" arrows="1" fold="1" page="1" pageScale="1" pageWidth="827" pageHeight="1169" math="0" shadow="0">
            <root>
                <mxCell id="slxvwRHOrbGmG4YtpDo1-0"/>
                <mxCell id="slxvwRHOrbGmG4YtpDo1-1" parent="slxvwRHOrbGmG4YtpDo1-0"/>
                <mxCell id="5Voh2c5BTk0bz7hrLmsL-0" value="Start" style="rounded=1;whiteSpace=wrap;html=1;fillColor=#008a00;fontColor=#ffffff;strokeColor=#005700;" vertex="1" parent="slxvwRHOrbGmG4YtpDo1-1">
                    <mxGeometry x="290" y="50" width="180" height="60" as="geometry"/>
                </mxCell>
                <mxCell id="5Voh2c5BTk0bz7hrLmsL-1" value="Stop" style="rounded=1;whiteSpace=wrap;html=1;fillColor=#a20025;fontColor=#ffffff;strokeColor=#6F0000;" vertex="1" parent="slxvwRHOrbGmG4YtpDo1-1">
                    <mxGeometry x="290" y="570" width="180" height="60" as="geometry"/>
                </mxCell>
                <mxCell id="5Voh2c5BTk0bz7hrLmsL-2" value="firstName = &quot;Max&quot;" style="rounded=0;whiteSpace=wrap;html=1;fillColor=#6a00ff;fontColor=#ffffff;strokeColor=#3700CC;" vertex="1" parent="slxvwRHOrbGmG4YtpDo1-1">
                    <mxGeometry x="240" y="170" width="280" height="60" as="geometry"/>
                </mxCell>
                <mxCell id="5Voh2c5BTk0bz7hrLmsL-3" value="lastName = &quot;Mustermann&quot;" style="rounded=0;whiteSpace=wrap;html=1;glass=0;shadow=0;fillColor=#6a00ff;fontColor=#ffffff;strokeColor=#3700CC;" vertex="1" parent="slxvwRHOrbGmG4YtpDo1-1">
                    <mxGeometry x="240" y="250" width="280" height="60" as="geometry"/>
                </mxCell>
                <mxCell id="5Voh2c5BTk0bz7hrLmsL-4" value="Ausgabe firstName" style="shape=parallelogram;perimeter=parallelogramPerimeter;whiteSpace=wrap;html=1;fixedSize=1;rounded=0;shadow=0;glass=0;fillColor=#0050ef;fontColor=#ffffff;strokeColor=#001DBC;" vertex="1" parent="slxvwRHOrbGmG4YtpDo1-1">
                    <mxGeometry x="240" y="370" width="280" height="60" as="geometry"/>
                </mxCell>
                <mxCell id="5Voh2c5BTk0bz7hrLmsL-5" value="Ausgabe lastName" style="shape=parallelogram;perimeter=parallelogramPerimeter;whiteSpace=wrap;html=1;fixedSize=1;rounded=0;shadow=0;glass=0;fillColor=#0050ef;fontColor=#ffffff;strokeColor=#001DBC;" vertex="1" parent="slxvwRHOrbGmG4YtpDo1-1">
                    <mxGeometry x="240" y="450" width="280" height="60" as="geometry"/>
                </mxCell>
            </root>
        </mxGraphModel>
    </diagram>
</mxfile>